<?xml version="1.0" encoding="UTF-8" standalone="no"?>
<svg
   xmlns:dc="http://purl.org/dc/elements/1.1/"
   xmlns:cc="http://creativecommons.org/ns#"
   xmlns:rdf="http://www.w3.org/1999/02/22-rdf-syntax-ns#"
   xmlns:svg="http://www.w3.org/2000/svg"
   xmlns="http://www.w3.org/2000/svg"
   xmlns:sodipodi="http://sodipodi.sourceforge.net/DTD/sodipodi-0.dtd"
   xmlns:inkscape="http://www.inkscape.org/namespaces/inkscape"
   width="83.509003mm"
   height="93.744476mm"
   viewBox="0 0 83.509003 93.74448"
   version="1.1"
   id="svg3746"
   inkscape:version="1.0 (b51213c273, 2020-08-10)"
   sodipodi:docname="coffee-hi.svg">
  <defs
     id="defs3740" />
  <sodipodi:namedview
     id="base"
     pagecolor="#ffffff"
     bordercolor="#666666"
     borderopacity="1.0"
     inkscape:pageopacity="0.0"
     inkscape:pageshadow="2"
     inkscape:zoom="1.0686752"
     inkscape:cx="11.810128"
     inkscape:cy="75.871626"
     inkscape:document-units="mm"
     inkscape:current-layer="layer1"
     inkscape:document-rotation="0"
     showgrid="false"
     inkscape:window-width="1854"
     inkscape:window-height="1016"
     inkscape:window-x="66"
     inkscape:window-y="27"
     inkscape:window-maximized="1" />
  <metadata
     id="metadata3743">
    <rdf:RDF>
      <cc:Work
         rdf:about="">
        <dc:format>image/svg+xml</dc:format>
        <dc:type
           rdf:resource="http://purl.org/dc/dcmitype/StillImage" />
        <dc:title></dc:title>
      </cc:Work>
    </rdf:RDF>
  </metadata>
  <g
     inkscape:label="Layer 1"
     inkscape:groupmode="layer"
     id="layer1"
     transform="translate(-72.613154,-92.302003)">
    <g
       id="g3866"
       transform="matrix(0.95107165,0,0,0.95107165,24.144093,7.8189707)">
      <g
         id="g1970"
         transform="matrix(0.06039167,0,0,-0.06039167,-859.74493,760.21563)">
        <path
           d="m 15906.9,9540.54 c -217,0 -393,29.23 -393,65.28 0,36.06 176,65.29 393,65.29 217.1,0 393.1,-29.23 393.1,-65.29 0,-36.05 -176,-65.28 -393.1,-65.28"
           style="fill:#cddee9;fill-opacity:1;fill-rule:nonzero;stroke:none"
           id="path1972" />
      </g>
      <g
         id="g1974"
         transform="matrix(0.05860239,0,0,-0.05860239,-859.74493,760.21563)">
        <path
           d="m 16299.5,9899.18 -27.4,222.52 -25,-3.1 25.4,-206.42 c -11.8,2.82 -26.4,5.71 -38.4,6.11 -24.2,0.8 -38.2,-23.99 -29.4,-23.99 8.8,0 87.5,0 93,0 2.3,0 1.9,2.21 0.7,4.74 l 1.1,0.14"
           style="fill:#c67c2e;fill-opacity:1;fill-rule:nonzero;stroke:none"
           id="path1976" />
      </g>
      <g
         id="g1978"
         transform="matrix(0.05971011,0,0,-0.05971011,-859.74493,760.21563)">
        <path
           d="m 16255.6,9733.94 c -13.8,-0.26 -28,-1.78 -39.6,-3.61 l 23.5,197.38 -24.5,2.93 -24.7,-206.45 c -3.1,-2.27 -3.8,-12.85 -1.1,-12.85 2.8,0 88.7,0.23 99.8,0.23 11,0 -4.7,22.9 -33.4,22.37"
           style="fill:#c67c2e;fill-opacity:1;fill-rule:nonzero;stroke:none"
           id="path1980" />
      </g>
      <g
         id="g1982"
         transform="matrix(0.05783791,0,0,-0.05783791,-859.74493,760.21563)">
        <path
           d="m 16289.9,10365.3 c -1.2,2.1 -5,4.8 -10.3,7.5 -60.4,55.1 -123.5,122 -125.6,140 -0.2,2 -0.1,4.7 3.1,8.5 16.8,20.2 84.1,31.9 122.6,34.5 l -1.7,25.4 c -11.4,-0.7 -111.3,-8.5 -140.5,-43.6 -6.9,-8.2 -9.9,-17.8 -8.8,-27.7 3.2,-27.8 62.5,-88.8 106,-130.2 -56.1,-20.7 -39.2,-69.6 -10.6,-74 17.1,-2.6 75.9,43 65.8,59.6"
           style="fill:#c67c2e;fill-opacity:1;fill-rule:nonzero;stroke:none"
           id="path1984" />
      </g>
      <g
         id="g1986"
         transform="matrix(0.06103479,0,0,-0.06103479,-859.74493,760.21563)">
        <path
           d="m 16251,10114 c 10.6,41.9 21.4,90.7 21.5,91.4 l -14.2,3.1 c -0.1,-0.6 -10,-45.5 -20,-85.8 -0.4,38.9 1.9,86.5 1.9,87.2 l -14.4,0.7 c -0.2,-2.8 -2.3,-47.5 -2,-86 -9.2,25.6 -19.2,57.8 -22.4,82.8 l -14.4,-1.8 c 4.3,-34.2 20.3,-79.5 30.8,-106.7 -13.5,10.8 -31,27.4 -44.5,48.7 l -12.2,-7.8 c 18.8,-29.8 44.7,-50.7 58.8,-60.8 -1.7,-50.3 -14.1,-82.4 -36.3,-92.93 -34.3,-16.4 -90.3,18.73 -108.9,33.63 l -15.1,-18.9 c 2.6,-2.1 54.5,-43.17 103.5,-43.17 10.6,0 21.1,1.93 31,6.6 31.2,14.88 48,53.47 49.9,114.67 32.6,37 55,110.3 56,113.5 l -13.9,4.2 c -0.2,-0.6 -14.2,-46.3 -35.1,-82.6"
           style="fill:#c67c2e;fill-opacity:1;fill-rule:nonzero;stroke:none"
           id="path1988" />
      </g>
      <g
         id="g1990"
         transform="matrix(0.06054549,0,0,-0.06054549,-859.74493,760.21563)">
        <path
           d="m 16226.2,11026.2 c 0,0 -192.2,5.4 -356.9,5.4 -164.8,0 -356.9,-5.4 -356.9,-5.4 -15.2,0 -28.7,-9.7 -33.4,-24.1 l -40.5,-120.5 h 861.5 l -40.4,120.5 c -4.8,14.4 -18.3,24.1 -33.4,24.1"
           style="fill:#aa6521;fill-opacity:1;fill-rule:nonzero;stroke:none"
           id="path1992" />
      </g>
      <g
         id="g1994"
         transform="matrix(0.06056206,0,0,-0.06056206,-859.74493,760.21563)">
        <path
           d="m 15429.9,10894.6 121.7,-1098.96 c 2,-17.85 16.1,-31.89 34,-33.72 50.5,-5.17 157.8,-14.41 280,-14.41 121.9,0 228.5,9.22 278.8,14.4 17.8,1.83 32,15.87 33.9,33.71 l 121.7,1098.98 h -870.1"
           style="fill:#ffd6a0;fill-opacity:1;fill-rule:nonzero;stroke:none"
           id="path1996" />
      </g>
      <g
         id="g1998"
         transform="matrix(0.06056171,0,0,-0.06056171,-859.74493,760.21563)">
        <path
           d="m 16296.5,10862.6 0.1,0.6 h 3.4 c 0,0 -1.2,-0.2 -3.5,-0.6"
           style="fill:#dbaf75;fill-opacity:1;fill-rule:nonzero;stroke:none"
           id="path2000" />
      </g>
      <g
         id="g2002"
         transform="matrix(0.06054901,0,0,-0.06054901,-859.74493,760.21563)">
        <path
           d="m 15895.2,10838.8 c -252.2,0 -458,27.2 -458,27.2 l 862.8,-0.5 -0.1,-0.6 c -24.2,-3.8 -174.2,-26.1 -404.7,-26.1"
           style="fill:#de954a;fill-opacity:1;fill-rule:nonzero;stroke:none"
           id="path2004" />
      </g>
      <g
         id="g2006"
         transform="matrix(0.06044635,0,0,-0.06044635,-859.74493,760.21563)">
        <path
           d="m 15490.8,10632.6 62.6,-565.7 c 0,0 159,-13.4 339.5,-13.4 180.5,0 344.4,13.4 344.4,13.4 l 62.7,565.7 c 0,0 -200.7,-12.7 -403.6,-12.7 -202.8,0 -405.6,12.7 -405.6,12.7"
           style="fill:#c67c2e;fill-opacity:1;fill-rule:nonzero;stroke:none"
           id="path2008" />
      </g>
      <g
         id="g2010"
         transform="matrix(0.06070141,0,0,-0.06070141,-859.74493,760.21563)">
        <path
           d="m 16256.1,10924.1 c 0,0 -256.9,-10.9 -426.3,-10.9 -169.3,0 -428.8,10.9 -428.8,10.9 -16.3,0 -30.5,-11.4 -34.1,-27.4 l -6.6,-29.5 c -3.2,-14.6 7.8,-28.4 22.7,-28.4 0,0 181.9,-12.3 447.8,-12.3 265.9,0 443.3,12.3 443.3,12.3 14.9,0 25.9,13.8 22.6,28.3 l -6.5,29.6 c -3.6,16 -17.8,27.4 -34.1,27.4"
           style="fill:#c67c2e;fill-opacity:1;fill-rule:nonzero;stroke:none"
           id="path2012" />
      </g>
      <g
         id="g2014"
         transform="matrix(0.06056771,0,0,-0.06056771,-859.74493,760.21563)">
        <path
           d="m 16294,10936.7 c -142.6,-8.1 -286.2,-10.8 -414.2,-10.8 -128.1,0 -240.7,2.7 -321.2,5.4 -40.3,1.4 -72.5,2.7 -94.7,3.7 -11.1,0.5 -19.7,1 -25.5,1.3 -5.8,0.3 -8.8,0.4 -8.8,0.4 -3.1,0.2 -5.7,-2.1 -5.9,-5.2 -0.1,-3.1 2.2,-5.7 5.2,-5.8 v 0 c 0.1,0 194.5,-10.9 450.9,-10.9 128.2,0 272,2.7 414.8,10.9 3.1,0.1 5.4,2.8 5.2,5.8 -0.1,3.1 -2.8,5.4 -5.8,5.2"
           style="fill:#e89e4f;fill-opacity:1;fill-rule:nonzero;stroke:none"
           id="path2016" />
      </g>
      <g
         id="g2018"
         transform="matrix(0.06033911,0,0,-0.06033911,-859.74493,760.21563)">
        <path
           d="m 16294,11052 c -379.3,-18.3 -739.2,-0.1 -742.8,0 -3.1,0.1 -5.6,-2.2 -5.8,-5.2 -0.2,-3.1 2.2,-5.7 5.2,-5.9 2.4,-0.1 162.6,-8.2 381.4,-8.2 110.2,0 235.3,2.1 362.6,8.2 3,0.2 5.4,2.8 5.2,5.9 -0.1,3 -2.8,5.4 -5.8,5.2"
           style="fill:#d99956;fill-opacity:1;fill-rule:nonzero;stroke:none"
           id="path2020" />
      </g>
      <g
         id="g2022"
         transform="matrix(0.05927337,0,0,-0.05927337,-859.74493,760.21563)">
        <path
           d="m 16276.8,10491.5 c 23.2,-42 -9.7,-126.5 -75.8,-126.5 -66.3,0 -95.3,90.8 -75.8,126.5 11.1,20.4 36.9,25.9 75.8,25.9 38.8,0 64.2,-5.2 75.8,-25.9"
           style="fill:#231f20;fill-opacity:1;fill-rule:nonzero;stroke:none"
           id="path2024" />
      </g>
      <g
         id="g2026"
         transform="matrix(0.05912696,0,0,-0.05912696,-859.74493,760.21563)">
        <path
           d="m 16185.8,10436 c 12.9,-19.3 31.7,-33.5 55.9,-33.5 25.1,0 45,14.2 58.3,33.8 -42.7,31.8 -84.7,18.6 -114.2,-0.3"
           style="fill:#fb422d;fill-opacity:1;fill-rule:nonzero;stroke:none"
           id="path2028" />
      </g>
      <g
         id="g2030"
         transform="matrix(0.05998421,0,0,-0.05998421,-859.74493,760.21563)">
        <path
           d="m 16180.7,10419.6 c 0,-33 26.7,-59.7 59.6,-59.7 33,0 59.7,26.7 59.7,59.7 0,33 -26.7,59.7 -59.7,59.7 -32.9,0 -59.6,-26.7 -59.6,-59.7"
           style="fill:#ffffff;fill-opacity:1;fill-rule:nonzero;stroke:none"
           id="path2032" />
      </g>
      <g
         id="g2034"
         transform="matrix(0.05991578,0,0,-0.05991578,-859.74493,760.21563)">
        <path
           d="m 16217.7,10432.5 c 0,-22.8 18.4,-41.2 41.2,-41.2 22.7,0 41.1,18.4 41.1,41.2 0,22.7 -18.4,41.1 -41.1,41.1 -22.8,0 -41.2,-18.4 -41.2,-41.1"
           style="fill:#231f20;fill-opacity:1;fill-rule:nonzero;stroke:none"
           id="path2036" />
      </g>
      <g
         id="g2038"
         transform="matrix(0.058287,0,0,-0.058287,-859.74493,760.21563)">
        <path
           d="m 16177.2,10723 c 0,-34 27.5,-61.5 61.4,-61.5 33.9,0 61.4,27.5 61.4,61.5 0,33.9 -27.5,61.4 -61.4,61.4 -33.9,0 -61.4,-27.5 -61.4,-61.4"
           style="fill:#ffffff;fill-opacity:1;fill-rule:nonzero;stroke:none"
           id="path2040" />
      </g>
      <g
         id="g2042"
         transform="matrix(0.05821856,0,0,-0.05821856,-859.74493,760.21563)">
        <path
           d="m 16215.3,10736.5 c 0,-23.4 19,-42.3 42.3,-42.3 23.4,0 42.4,18.9 42.4,42.3 0,23.4 -19,42.4 -42.4,42.4 -23.3,0 -42.3,-19 -42.3,-42.4"
           style="fill:#231f20;fill-opacity:1;fill-rule:nonzero;stroke:none"
           id="path2044" />
      </g>
    </g>
    <g
       id="g1322"
       transform="matrix(-0.03937811,0,0,-0.03937811,736.20546,625.21741)"
       style="opacity:0.995">
      <path
         d="m 16294.7,13207.4 0.1,0.9 h 5.2 c 0,0 -1.8,-0.4 -5.3,-0.9"
         style="fill:#dbaf75;fill-opacity:1;fill-rule:nonzero;stroke:none"
         id="path1324" />
    </g>
    <g
       id="g1370"
       transform="matrix(-0.04056486,0,0,-0.04056486,736.20546,625.21741)"
       style="opacity:0.995">
      <path
         d="m 16010.9,12777.9 c -159.6,0 -289,-100.4 -289,-224.2 0,-81.3 56,-152.6 139.6,-191.8 0,0 -9.1,-45 -58.9,-98.2 72.8,7.1 131.9,73.9 131.9,73.9 24.3,-5.2 50,-8 76.4,-8 159.7,0 289.1,100.3 289.1,224.1 0,123.8 -129.4,224.2 -289.1,224.2"
         style="fill:#aa6521;fill-opacity:1;fill-rule:nonzero;stroke:none"
         id="path1372" />
    </g>
    <g
       id="g1374"
       transform="matrix(-0.03948112,0,0,-0.03948112,736.20546,625.21741)"
       style="opacity:0.995">
      <path
         d="m 16300,12904.2 c 0,-19.9 -16.1,-36 -36,-36 -19.8,0 -35.9,16.1 -35.9,36 0,19.8 16.1,35.9 35.9,35.9 19.9,0 36,-16.1 36,-35.9"
         style="fill:#ffffff;fill-opacity:1;fill-rule:nonzero;stroke:none"
         id="path1376" />
    </g>
    <g
       id="g1378"
       transform="matrix(-0.03991187,0,0,-0.03991187,736.20546,625.21741)"
       style="opacity:0.995">
      <path
         d="m 16300,12765 c 0,-19.7 -15.9,-35.6 -35.6,-35.6 -19.6,0 -35.6,15.9 -35.6,35.6 0,19.6 16,35.6 35.6,35.6 19.7,0 35.6,-16 35.6,-35.6"
         style="fill:#ffffff;fill-opacity:1;fill-rule:nonzero;stroke:none"
         id="path1380" />
    </g>
    <g
       id="g1382"
       transform="matrix(-0.04034225,0,0,-0.04034225,736.20546,625.21741)"
       style="opacity:0.995">
      <path
         d="m 16300,12628.8 c 0,-19.5 -15.7,-35.3 -35.2,-35.3 -19.5,0 -35.2,15.8 -35.2,35.3 0,19.4 15.7,35.2 35.2,35.2 19.5,0 35.2,-15.8 35.2,-35.2"
         style="fill:#ffffff;fill-opacity:1;fill-rule:nonzero;stroke:none"
         id="path1384" />
    </g>
  </g>
</svg>
