<?xml version="1.0" encoding="UTF-8" standalone="no"?>
<svg
   xmlns:dc="http://purl.org/dc/elements/1.1/"
   xmlns:cc="http://creativecommons.org/ns#"
   xmlns:rdf="http://www.w3.org/1999/02/22-rdf-syntax-ns#"
   xmlns:svg="http://www.w3.org/2000/svg"
   xmlns="http://www.w3.org/2000/svg"
   xmlns:sodipodi="http://sodipodi.sourceforge.net/DTD/sodipodi-0.dtd"
   xmlns:inkscape="http://www.inkscape.org/namespaces/inkscape"
   width="59.959618mm"
   height="91.741867mm"
   viewBox="0 0 59.959618 91.741867"
   version="1.1"
   id="svg3512"
   inkscape:version="1.0 (b51213c273, 2020-08-10)"
   sodipodi:docname="coffee-ok.svg">
  <defs
     id="defs3506" />
  <sodipodi:namedview
     id="base"
     pagecolor="#ffffff"
     bordercolor="#666666"
     borderopacity="1.0"
     inkscape:pageopacity="0.0"
     inkscape:pageshadow="2"
     inkscape:zoom="0.97016279"
     inkscape:cx="233.80551"
     inkscape:cy="239.30443"
     inkscape:document-units="mm"
     inkscape:current-layer="layer1"
     inkscape:document-rotation="0"
     showgrid="false"
     inkscape:window-width="1854"
     inkscape:window-height="1016"
     inkscape:window-x="66"
     inkscape:window-y="27"
     inkscape:window-maximized="1" />
  <metadata
     id="metadata3509">
    <rdf:RDF>
      <cc:Work
         rdf:about="">
        <dc:format>image/svg+xml</dc:format>
        <dc:type
           rdf:resource="http://purl.org/dc/dcmitype/StillImage" />
        <dc:title></dc:title>
      </cc:Work>
    </rdf:RDF>
  </metadata>
  <g
     inkscape:label="Layer 1"
     inkscape:groupmode="layer"
     id="layer1"
     transform="translate(-35.788032,-105.31954)">
    <g
       id="g3674"
       transform="matrix(0.93188221,0,0,0.93188221,4.4799598,10.29876)">
      <g
         id="g1866"
         transform="matrix(0.06746628,0,0,-0.06746628,-1011.1623,773.23086)">
        <path
           d="m 15948.2,8540.11 c -194.3,0 -351.9,26.16 -351.9,58.43 0,32.28 157.6,58.45 351.9,58.45 194.3,0 351.8,-26.17 351.8,-58.45 0,-32.27 -157.5,-58.43 -351.8,-58.43"
           style="fill:#cddee9;fill-opacity:1;fill-rule:nonzero;stroke:none"
           id="path1868" />
      </g>
      <g
         id="g1870"
         transform="matrix(0.06489735,0,0,-0.06489735,-1011.1623,773.23086)">
        <path
           d="m 16289.6,9231.61 c -4.5,5.85 -127.8,89.18 -134.3,118.04 -0.3,1.74 -0.5,4.21 2,7.83 12.9,19.44 71.5,36.06 105.4,41.97 l -3.9,22.4 c -9.9,-1.74 -97.8,-17.89 -120.5,-51.73 -5.3,-7.96 -7.1,-16.75 -5.1,-25.42 5.4,-24.27 63.6,-72.82 106.1,-105.48 -13.4,-6.59 -11.7,-17.78 -11.7,-17.78 0,0 -18.3,-7.87 -18.7,-17.31 -0.2,-9.44 8.6,-30.59 27.8,-31.49 15.4,-0.71 63.3,45.16 52.9,58.97"
           style="fill:#c67c2e;fill-opacity:1;fill-rule:nonzero;stroke:none"
           id="path1872" />
      </g>
      <g
         id="g1874"
         transform="matrix(0.06567593,0,0,-0.06567593,-1011.1623,773.23086)">
        <path
           d="m 16299.9,8831.88 -4.3,198.52 -22.4,-0.48 4,-185.65 c -10.7,2.61 -24.5,5.41 -35.8,5.79 -21.5,0.71 -34,-21.4 -26.1,-21.4 7.8,0 78,0 82.9,0 1.8,0 1.7,1.41 1,3.2 l 0.7,0.02"
           style="fill:#c67c2e;fill-opacity:1;fill-rule:nonzero;stroke:none"
           id="path1876" />
      </g>
      <g
         id="g1878"
         transform="matrix(0.06678471,0,0,-0.06678471,-1011.1623,773.23086)">
        <path
           d="m 16260.3,8702.81 c -12.9,-0.24 -26.2,-1.72 -36.8,-3.46 l -0.1,178.02 -22.1,-0.02 -0.3,-194.75 c 2.5,0 79.3,0.21 89.1,0.21 9.9,0 -4,20.47 -29.8,20"
           style="fill:#c67c2e;fill-opacity:1;fill-rule:nonzero;stroke:none"
           id="path1880" />
      </g>
      <g
         id="g1882"
         transform="matrix(0.06794782,0,0,-0.06794782,-1011.1623,773.23086)">
        <path
           d="m 16236.2,8940.21 c 28.9,13.74 44.1,49.97 45.1,107.61 l 0.5,-0.18 c 18.2,59.78 2.6,121.27 1.9,123.85 l -12.6,-3.26 c 0.2,-0.42 7.6,-30.04 6.2,-67.07 -6.8,46.51 -21.6,72.56 -22.4,73.97 l -11.3,-6.57 c 0.2,-0.31 12.8,-22.58 19.7,-62.59 -14.4,35.2 -35.7,58.1 -37,59.46 l -9.5,-8.95 c 0.3,-0.29 17.4,-18.76 30.8,-47.44 -9.1,6.36 -16.3,5.85 -20.9,3.97 -10.6,-4.25 -16.5,-18.16 -17.9,-42.52 l 13,-0.79 c 1.3,20.63 5.9,29.66 9.8,31.23 2.7,1.08 7.2,-0.94 12.1,-5.43 7.2,-6.65 13.3,-16.57 16.8,-25.42 1.1,-5.35 1.9,-10.83 2.3,-16.46 -0.5,-0.55 -1.2,-1.17 -1.9,-1.84 l -1.2,0.01 v -1.05 c -2.9,-2.26 -7.1,-4.51 -11.9,-4.51 h -0.1 c -8.2,0.09 -17.1,6.81 -25.7,19.41 l -10.8,-7.38 c 11.3,-16.48 23.5,-24.91 36.3,-25.06 h 0.4 c 4.1,0 7.9,0.91 11.2,2.27 -2.5,-40.71 -13.5,-66.75 -32.2,-75.64 -30.9,-14.74 -81.1,16.8 -97.9,30.19 l -13.6,-16.94 c 2.4,-1.91 49,-38.8 93.1,-38.8 9.5,0 18.9,1.73 27.7,5.93"
           style="fill:#c67c2e;fill-opacity:1;fill-rule:nonzero;stroke:none"
           id="path1884" />
      </g>
      <g
         id="g1886"
         transform="matrix(0.06759504,0,0,-0.06759504,-1011.1623,773.23086)">
        <path
           d="m 16233.9,9876.25 c 0,0 -172.1,4.82 -319.7,4.82 -147.6,0 -319.7,-4.82 -319.7,-4.82 -13.6,0 -25.6,-8.67 -30,-21.53 l -36.1,-107.99 771.6,-0.01 -36.2,108 c -4.3,12.86 -16.4,21.53 -29.9,21.53"
           style="fill:#aa6521;fill-opacity:1;fill-rule:nonzero;stroke:none"
           id="path1888" />
      </g>
      <g
         id="g1890"
         transform="matrix(0.06761162,0,0,-0.06761162,-1011.1623,773.23086)">
        <path
           d="m 15520.6,9758.71 109,-984.41 c 1.8,-15.99 14.4,-28.56 30.4,-30.2 45.3,-4.63 141.4,-12.91 250.9,-12.91 109.2,0 204.7,8.26 249.7,12.9 16,1.64 28.6,14.21 30.4,30.19 l 109,984.42 -779.4,0.01"
           style="fill:#ffd6a0;fill-opacity:1;fill-rule:nonzero;stroke:none"
           id="path1892" />
      </g>
      <g
         id="g1894"
         transform="matrix(0.06761127,0,0,-0.06761127,-1011.1623,773.23086)">
        <path
           d="m 16296.9,9730.02 v 0.51 h 3.1 c 0,0 -1,-0.18 -3.1,-0.51"
           style="fill:#dbaf75;fill-opacity:1;fill-rule:nonzero;stroke:none"
           id="path1896" />
      </g>
      <g
         id="g1898"
         transform="matrix(0.06759857,0,0,-0.06759857,-1011.1623,773.23086)">
        <path
           d="m 15937.5,9708.48 c -226,0 -410.3,24.4 -410.3,24.4 l 772.8,-0.51 -0.1,-0.51 c -21.7,-3.45 -156,-23.38 -362.4,-23.38"
           style="fill:#de954a;fill-opacity:1;fill-rule:nonzero;stroke:none"
           id="path1900" />
      </g>
      <g
         id="g1902"
         transform="matrix(0.06749556,0,0,-0.06749556,-1011.1623,773.23086)">
        <path
           d="m 15575.4,9522.12 56.1,-506.57 c 0,0 142.3,-12.07 303.9,-12.07 161.6,0 308.5,12.07 308.5,12.07 l 56.1,506.56 c 0,0 -179.7,-11.34 -361.4,-11.34 -181.7,0 -363.2,11.35 -363.2,11.35"
           style="fill:#c67c2e;fill-opacity:1;fill-rule:nonzero;stroke:none"
           id="path1904" />
      </g>
      <g
         id="g1906"
         transform="matrix(0.06775097,0,0,-0.06775097,-1011.1623,773.23086)">
        <path
           d="m 16260.6,9787.42 c 0,0 -230.1,-9.72 -381.8,-9.72 -151.8,0 -384.2,9.74 -384.2,9.74 -14.7,0 -27.4,-10.18 -30.6,-24.51 l -5.9,-26.5 c -2.9,-13.02 7,-25.37 20.3,-25.37 0,0 163,-11.06 401.2,-11.06 238.2,0 397.2,11.04 397.2,11.04 13.3,0 23.2,12.36 20.3,25.38 l -5.9,26.49 c -3.2,14.33 -15.9,24.51 -30.6,24.51"
           style="fill:#c67c2e;fill-opacity:1;fill-rule:nonzero;stroke:none"
           id="path1908" />
      </g>
      <g
         id="g1910"
         transform="matrix(0.06761727,0,0,-0.06761727,-1011.1623,773.23086)">
        <path
           d="m 16294.6,9796.51 c -127.7,-7.26 -256.3,-9.7 -371,-9.7 -114.8,0 -215.6,2.43 -287.7,4.85 -36.1,1.22 -65,2.43 -84.9,3.33 -9.9,0.46 -17.6,0.84 -22.8,1.11 -5.2,0.26 -7.9,0.41 -7.9,0.41 -2.7,0.15 -5.1,-1.94 -5.2,-4.68 -0.2,-2.74 1.9,-5.09 4.7,-5.24 v 0 c 0,0 174.1,-9.72 403.8,-9.72 114.9,0 243.6,2.44 371.5,9.72 2.8,0.16 4.9,2.5 4.7,5.24 -0.1,2.74 -2.5,4.83 -5.2,4.68"
           style="fill:#e89e4f;fill-opacity:1;fill-rule:nonzero;stroke:none"
           id="path1912" />
      </g>
      <g
         id="g1914"
         transform="matrix(0.06738867,0,0,-0.06738867,-1011.1623,773.23086)">
        <path
           d="m 16294.6,9895.89 c -339.7,-16.46 -661.8,-0.16 -665,0 -2.8,0.1 -5.2,-1.97 -5.3,-4.72 -0.1,-2.75 2,-5.09 4.7,-5.23 2.2,-0.11 145.5,-7.37 341.5,-7.37 98.6,0 210.7,1.85 324.6,7.37 2.8,0.13 4.9,2.47 4.7,5.22 -0.1,2.74 -2.5,4.87 -5.2,4.73"
           style="fill:#d99956;fill-opacity:1;fill-rule:nonzero;stroke:none"
           id="path1916" />
      </g>
      <g
         id="g1918"
         transform="matrix(0.06710186,0,0,-0.06710186,-1011.1623,773.23086)">
        <path
           d="m 16290.5,9291.49 c -28.4,12.95 -59.2,19.82 -83.1,23.65 -2.5,0.39 -4.8,0.74 -7.1,1.06 18,11.47 45.1,25.84 80.7,36.42 6.9,2.05 10.8,9.31 8.7,16.2 -2,6.89 -9.3,10.82 -16.1,8.76 v 0.01 c -75.4,-22.47 -116,-60.59 -117,-61.5 -3.8,-3.59 -5.1,-9.16 -3.2,-14.05 1.8,-4.89 6.4,-8.24 11.7,-8.44 l 0.1,-0.01 c 1.6,-0.06 18,-0.87 40.2,-4.52 22.2,-3.63 50.1,-10.18 74.4,-21.28 6.5,-2.98 14.2,-0.1 17.2,6.45 3,6.54 0.1,14.27 -6.5,17.25"
           style="fill:#000000;fill-opacity:1;fill-rule:nonzero;stroke:none"
           id="path1920" />
      </g>
      <g
         id="g1922"
         transform="matrix(0.06536196,0,0,-0.06536196,-1011.1623,773.23086)">
        <path
           d="m 16190.4,9552.54 c 0,-30.24 24.5,-54.77 54.8,-54.77 30.2,0 54.8,24.53 54.8,54.77 0,30.25 -24.6,54.76 -54.8,54.76 -30.3,0 -54.8,-24.51 -54.8,-54.76"
           style="fill:#ffffff;fill-opacity:1;fill-rule:nonzero;stroke:none"
           id="path1924" />
      </g>
      <g
         id="g1926"
         transform="matrix(0.06529352,0,0,-0.06529352,-1011.1623,773.23086)">
        <path
           d="m 16224.5,9563.42 c 0,-20.85 16.9,-37.75 37.7,-37.75 20.9,0 37.8,16.9 37.8,37.75 0,20.86 -16.9,37.76 -37.8,37.76 -20.8,0 -37.7,-16.9 -37.7,-37.76"
           style="fill:#231f20;fill-opacity:1;fill-rule:nonzero;stroke:none"
           id="path1928" />
      </g>
      <g
         id="g1930"
         transform="matrix(0.06631728,0,0,-0.06631728,-1011.1623,773.23086)">
        <path
           d="m 16292.3,9374.53 c -11.3,12.4 -36.2,1.68 -74.7,1.68 -38.5,0 -64.2,10.49 -75.3,-1.68 -4.8,-5.33 -6.6,-12.7 -5.6,-20.79 0.2,-1.64 0.5,-3.31 1,-5 5.8,-22.52 32.1,-34.74 75.5,-36.26 1.4,-0.05 2.7,-0.11 4.1,-0.11 7.7,0 15,0.73 21.8,2.01 34.4,6.51 56.1,14.61 60,34.61 0.3,1.7 0.5,3.39 0.5,5.06 0.4,7.56 -1.9,14.7 -7.3,20.48"
           style="fill:#ffffff;fill-opacity:1;fill-rule:nonzero;stroke:none"
           id="path1932" />
      </g>
      <g
         id="g1934"
         transform="matrix(0.06632857,0,0,-0.06632857,-1011.1623,773.23086)">
        <path
           d="m 16280.6,9348.37 c 19.4,18.84 12.4,20.89 -26.1,20.89 -10.7,0 -23.9,-0.16 -39.5,-0.16 -16.9,0 -38.9,2.99 -55.1,2.99 -19.4,0 -30.3,-4.28 -13.7,-23.06 -5.2,1.18 -9.3,2.26 -12.2,3.12 v 0 c -0.2,1.39 -0.3,2.76 -0.3,4.1 -0.1,6.46 1.9,12.28 5.9,16.69 4,4.47 10.1,5.88 18,5.88 13.6,0 32.9,-4.2 57.2,-4.2 24.4,0 43.3,4.3 56.8,4.3 7.8,0 13.8,-1.44 18,-5.98 5,-5.42 7.3,-12.03 7.3,-19.06 0,-0.47 0,-0.94 0,-1.41 v 0 c -3.6,-1.08 -9,-2.52 -16.3,-4.1"
           style="fill:#b9b9b9;fill-opacity:1;fill-rule:nonzero;stroke:none"
           id="path1936" />
      </g>
      <g
         id="g1938"
         transform="matrix(0.06596415,0,0,-0.06596415,-1011.1623,773.23086)">
        <path
           d="m 16300,9362.32 c -43.6,1.52 -70.1,13.81 -75.9,36.45 4.8,-0.79 9.8,-1.35 14.4,-1.74 -0.2,-7.1 2,-27.99 61.5,-34.71"
           style="fill:#b9b9b9;fill-opacity:1;fill-rule:nonzero;stroke:none"
           id="path1940" />
      </g>
      <g
         id="g1942"
         transform="matrix(0.0663134,0,0,-0.0663134,-1011.1623,773.23086)">
        <path
           d="m 16240,9314.89 c 27.8,9.06 57.5,12.05 39.7,32.32 6.2,0.41 13.3,1.1 20.3,2.3 -3.9,-20 -25.6,-28.1 -60,-34.62"
           style="fill:#b9b9b9;fill-opacity:1;fill-rule:nonzero;stroke:none"
           id="path1944" />
      </g>
      <g
         id="g1946"
         transform="matrix(0.06624955,0,0,-0.06624955,-1011.1623,773.23086)">
        <path
           d="m 16300,9359.51 c -5.8,-1.24 -12.7,-2.56 -20.9,-3.84 0,0 6.9,-0.04 16.3,0.58 -0.4,0.5 -0.8,1 -1.4,1.52 0,0 2.8,0.19 6,1.74"
           style="fill:#231f20;fill-opacity:1;fill-rule:nonzero;stroke:none"
           id="path1948" />
      </g>
      <g
         id="g1950"
         transform="matrix(0.06631587,0,0,-0.06631587,-1011.1623,773.23086)">
        <path
           d="m 16277.8,9348.42 c 0.5,-0.51 0.9,-1.01 1.3,-1.52 6.2,0.41 13.3,1.11 20.4,2.31 0.3,1.7 0.4,3.38 0.5,5.06 -3.6,-1.07 -9,-2.52 -16.3,-4.1 -3.2,-1.56 -5.9,-1.75 -5.9,-1.75"
           style="fill:#231f20;fill-opacity:1;fill-rule:nonzero;stroke:none"
           id="path1952" />
      </g>
      <g
         id="g1954"
         transform="matrix(0.0657994,0,0,-0.0657994,-1011.1623,773.23086)">
        <path
           d="m 16279.1,9420.56 c 11.6,-0.97 20.9,-0.91 20.9,-0.91 -9.7,1.52 -17.7,3.1 -24,4.54 0.9,-0.85 2,-1.64 3.3,-2.31 0,0 -0.1,-0.49 -0.2,-1.32"
           style="fill:#231f20;fill-opacity:1;fill-rule:nonzero;stroke:none"
           id="path1956" />
      </g>
      <g
         id="g1958"
         transform="matrix(0.0657158,0,0,-0.0657158,-1011.1623,773.23086)">
        <path
           d="m 16300,9433.88 c -1.2,0.68 -2.3,1.47 -3.3,2.32 -5.2,1.18 -9.3,2.27 -12.3,3.15 0.2,-1.66 0.5,-3.34 1,-5.04 4.9,-0.8 9.9,-1.36 14.5,-1.75 0,0.84 0.1,1.32 0.1,1.32"
           style="fill:#231f20;fill-opacity:1;fill-rule:nonzero;stroke:none"
           id="path1960" />
      </g>
      <g
         id="g1962"
         transform="matrix(0.06643546,0,0,-0.06643546,-1011.1623,773.23086)">
        <path
           d="m 16287.1,9349.7 c 1.2,12.49 -8.8,17.9 -8.8,17.9 0.8,0.04 1.4,0.06 2.1,0.06 19.6,0 6.7,-17.96 6.7,-17.96"
           style="fill:#b67129;fill-opacity:1;fill-rule:nonzero;stroke:none"
           id="path1964" />
      </g>
      <g
         id="g1966"
         transform="matrix(0.06562055,0,0,-0.06562055,-1011.1623,773.23086)">
        <path
           d="m 16291.1,9465.8 c 0,0 -13,18.19 6.8,18.19 0.6,0 1.3,-0.03 2.1,-0.06 0,0 -10.2,-5.48 -8.9,-18.13"
           style="fill:#b67129;fill-opacity:1;fill-rule:nonzero;stroke:none"
           id="path1968" />
      </g>
    </g>
  </g>
</svg>
